<?xml version="1.0" standalone="no"?>
<!DOCTYPE svg PUBLIC "-//W3C//DTD SVG 20010904//EN"
 "http://www.w3.org/TR/2001/REC-SVG-20010904/DTD/svg10.dtd">
<svg version="1.0" xmlns="http://www.w3.org/2000/svg"
 width="512.000000pt" height="512.000000pt" viewBox="0 0 512.000000 512.000000"
 preserveAspectRatio="xMidYMid meet">
<metadata>
Created by potrace 1.16, written by Peter Selinger 2001-2019
</metadata>
<g transform="translate(0.000000,512.000000) scale(0.100000,-0.100000)"
fill="#000000" stroke="none">
<path d="M151 4960 c-140 -146 -152 -162 -149 -192 3 -33 4 -32 160 127 86 88
168 175 183 193 l27 32 -35 0 c-31 0 -47 -14 -186 -160z"/>
<path d="M1031 5057 c-30 -34 -143 -156 -250 -272 -108 -115 -264 -284 -346
-374 -83 -91 -185 -203 -228 -250 -96 -105 -153 -179 -160 -208 -3 -13 -3 -23
0 -23 6 0 85 63 114 90 8 8 48 44 89 80 40 36 85 76 100 90 15 14 67 61 116
105 49 44 125 116 170 160 44 44 105 103 135 131 29 28 84 82 121 120 37 38
73 74 80 81 33 29 303 316 306 324 2 5 -41 9 -95 8 l-98 -1 -54 -61z"/>
<path d="M2350 5083 c-18 -21 -101 -112 -185 -203 -279 -304 -648 -720 -637
-720 10 0 239 236 377 390 32 36 92 101 134 145 42 44 128 136 191 205 62 69
134 146 159 173 44 46 45 47 19 47 -18 0 -36 -12 -58 -37z"/>
<path d="M3378 4843 c-246 -279 -331 -376 -537 -609 -301 -341 -777 -923 -812
-993 -12 -24 -24 -64 -27 -90 l-5 -46 94 97 c52 53 119 124 149 158 30 33 74
82 97 108 58 62 89 98 143 162 25 29 64 74 87 99 24 25 43 49 43 52 0 4 23 30
50 59 28 29 50 54 50 57 0 2 10 14 23 27 30 31 90 100 119 137 12 17 35 43 51
59 15 16 27 33 27 39 0 6 5 11 10 11 6 0 10 5 10 11 0 6 22 34 49 62 74 79 88
95 201 229 19 23 43 50 53 60 9 10 17 21 17 26 0 4 16 22 35 39 19 18 35 35
35 39 0 3 9 16 19 28 11 11 43 50 71 86 28 36 63 79 78 95 56 63 120 142 162
200 24 33 48 63 54 67 6 4 -14 8 -46 8 l-56 0 -244 -277z"/>
<path d="M4194 4833 c-143 -158 -344 -380 -448 -493 -365 -396 -573 -626 -701
-775 -180 -207 -936 -1091 -1130 -1320 -256 -302 -383 -444 -745 -830 -273
-291 -291 -312 -330 -370 -18 -27 -40 -59 -49 -71 -9 -11 4 1 29 28 25 26 50
48 57 48 28 0 109 71 245 213 79 83 175 183 213 223 39 40 138 143 220 230
159 167 250 256 355 349 109 96 230 145 573 230 118 30 160 63 297 234 78 97
187 226 251 296 20 22 60 69 90 105 29 36 60 72 68 81 9 9 39 42 66 74 28 32
61 70 75 84 14 15 37 43 52 61 15 19 37 47 50 61 13 15 39 46 58 69 19 23 54
63 77 89 24 25 43 52 43 59 0 6 4 12 9 12 16 0 63 110 58 135 -2 13 1 26 7 29
7 3 7 5 -1 5 -29 2 -563 -613 -937 -1081 -84 -106 -165 -203 -178 -215 -16
-16 -51 -28 -108 -38 -137 -26 -385 -102 -463 -142 -39 -21 -76 -40 -81 -42
-5 -2 2 11 15 30 13 19 29 44 36 56 14 27 75 101 158 192 87 95 330 378 422
490 16 19 35 41 43 49 8 9 15 18 15 21 0 3 45 53 100 111 56 58 128 134 160
169 33 35 170 174 305 310 135 136 293 301 350 366 154 175 206 231 428 457
72 74 132 138 132 141 0 3 24 30 53 60 102 106 296 312 317 337 11 14 50 55
87 93 l66 67 -75 0 -75 0 -259 -287z"/>
<path d="M5028 4321 c-48 -60 -156 -192 -240 -293 -84 -101 -201 -242 -260
-313 -58 -72 -204 -249 -324 -395 -353 -428 -798 -999 -957 -1227 -73 -104
-128 -221 -133 -281 l-4 -47 14 35 c22 58 151 258 186 290 3 3 25 32 50 65 37
51 279 356 332 420 9 11 51 63 93 115 42 52 95 117 118 144 23 27 48 58 56 70
17 24 87 110 141 172 19 22 51 58 70 80 19 22 55 65 80 94 25 30 57 66 72 81
14 16 52 61 84 101 59 74 146 178 312 373 52 61 99 117 105 125 39 49 190 224
239 278 l58 63 0 79 c0 44 -1 80 -2 80 -2 0 -42 -49 -90 -109z"/>
<path d="M1644 3763 c-54 -65 -153 -181 -219 -258 -66 -77 -178 -210 -250
-295 -223 -267 -434 -510 -564 -649 -120 -128 -124 -134 -91 -127 55 10 97 46
257 219 240 258 472 538 598 720 65 94 306 421 350 475 14 17 25 32 22 32 -2
0 -49 -53 -103 -117z"/>
<path d="M4925 3598 c-104 -117 -240 -267 -301 -333 -60 -66 -213 -237 -338
-380 -346 -394 -707 -776 -1280 -1354 -533 -537 -553 -555 -1131 -1001 -159
-123 -375 -292 -480 -374 l-189 -151 88 -3 c81 -3 92 -1 125 23 65 45 115 85
151 118 19 18 53 46 75 62 22 17 42 33 43 38 2 4 8 7 14 7 6 0 20 10 32 23 11
12 64 53 116 91 52 39 100 75 105 81 6 7 26 23 45 36 42 28 133 99 175 137 17
15 66 59 110 97 44 39 98 88 120 110 82 82 214 202 280 255 148 120 296 262
350 335 16 22 64 76 106 120 41 44 114 120 160 169 46 49 100 106 119 126 94
98 150 161 150 170 0 6 7 10 15 10 8 0 15 3 15 8 0 4 25 33 55 64 30 31 55 60
55 65 0 4 28 37 63 73 34 36 -129 -127 -363 -361 -234 -235 -441 -437 -460
-450 -54 -36 -26 -4 124 144 72 71 131 132 131 137 0 4 4 12 9 17 5 5 6 2 1
-6 -5 -9 -4 -12 3 -7 6 4 9 12 6 19 -5 13 109 127 218 221 32 27 55 54 51 60
-3 6 -3 8 1 4 4 -3 35 24 68 60 34 37 177 182 317 323 237 237 365 371 486
509 62 71 148 164 244 265 42 44 108 116 146 160 39 44 100 111 136 150 36 38
103 111 148 162 80 90 82 93 79 137 l-3 46 -190 -212z m-1931 -2199 c-38 -43
-246 -230 -251 -225 -9 9 13 34 72 82 58 47 82 68 155 132 41 37 51 41 24 11z
m-109 -34 c-39 -32 -54 -32 -18 0 15 13 33 24 38 25 6 0 -3 -11 -20 -25z"/>
<path d="M544 3683 c-44 -49 -184 -202 -312 -341 -177 -191 -233 -258 -230
-274 2 -18 16 -7 83 68 44 49 125 139 180 199 116 127 248 282 290 340 16 22
40 52 54 68 14 15 22 27 19 27 -3 0 -41 -39 -84 -87z"/>
<path d="M1999 3443 c-13 -16 -12 -17 4 -4 9 7 17 15 17 17 0 8 -8 3 -21 -13z"/>
<path d="M1874 3298 c-165 -194 -591 -724 -547 -683 20 20 140 162 248 295 60
74 117 144 127 155 9 11 61 74 114 140 54 66 113 139 132 163 19 23 32 42 28
42 -3 0 -49 -51 -102 -112z"/>
<path d="M5060 3278 c-30 -34 -132 -146 -225 -248 -244 -265 -396 -435 -608
-680 -102 -118 -204 -233 -225 -255 -33 -33 -354 -460 -503 -670 -274 -385
-559 -765 -699 -935 -88 -105 -168 -223 -230 -335 -18 -33 -48 -81 -66 -107
l-34 -48 48 0 c47 0 47 0 100 73 29 39 57 77 62 84 6 7 10 16 10 20 0 4 10 19
21 33 11 14 48 68 83 121 35 53 71 99 80 102 9 4 16 13 16 21 0 8 4 16 8 18 8
3 65 72 127 153 17 21 48 60 71 85 22 25 80 95 128 155 49 61 94 118 102 128
8 9 14 19 14 22 0 3 8 13 18 24 25 26 111 141 143 191 9 14 25 34 35 46 11 12
39 45 64 74 25 29 55 62 68 73 12 11 22 27 22 34 0 7 4 13 10 13 5 0 16 12 24
28 9 15 30 43 48 63 18 21 42 50 53 65 31 43 69 89 78 92 4 2 7 8 7 14 0 6 9
20 20 32 18 20 52 61 110 136 14 17 40 48 58 68 17 20 32 39 32 43 0 6 96 130
109 139 10 7 111 139 111 144 0 3 10 16 23 30 12 13 31 37 42 52 11 15 30 37
43 49 12 12 22 25 22 29 0 6 21 29 125 141 22 23 45 49 52 56 7 8 18 19 25 26
7 7 22 24 33 39 11 14 54 61 95 104 83 86 120 129 120 137 0 3 16 20 35 39 19
18 35 35 35 37 0 3 25 31 55 64 30 32 58 67 61 78 3 11 4 53 2 93 l-3 73 -55
-63z"/>
<path d="M4945 2558 c-224 -265 -282 -336 -264 -321 11 9 20 9 39 0 22 -11 30
-9 67 15 23 16 69 55 102 89 34 33 61 57 62 52 0 -4 4 2 10 15 5 13 13 20 19
17 5 -3 10 -1 10 4 0 6 29 40 65 76 l65 66 0 94 c0 52 -1 95 -2 95 -2 -1 -79
-91 -173 -202z"/>
<path d="M813 2432 c-37 -50 -197 -216 -303 -315 -108 -101 -195 -175 -172
-145 13 16 9 38 -7 38 -4 0 -28 -28 -53 -62 -26 -35 -98 -119 -162 -188 l-116
-125 0 -75 0 -74 133 136 c157 162 242 252 357 378 47 51 90 98 95 104 6 6 22
27 35 46 13 19 27 37 30 40 13 10 138 177 164 218 31 49 30 66 -1 24z"/>
<path d="M2693 2218 c-41 -64 -202 -256 -418 -498 -66 -74 -149 -169 -185
-210 -166 -192 -433 -484 -716 -781 -153 -161 -192 -226 -201 -339 -3 -38 -3
-70 0 -70 3 0 17 21 30 48 49 97 106 172 235 311 53 57 111 118 127 136 52 55
140 157 206 235 34 41 79 93 100 115 54 57 189 226 202 253 5 12 13 22 17 22
3 0 31 33 61 73 29 39 57 74 60 77 5 5 118 142 305 371 106 130 180 232 208
287 26 50 14 38 -31 -30z"/>
<path d="M3249 1723 c-13 -16 -12 -17 4 -4 9 7 17 15 17 17 0 8 -8 3 -21 -13z"/>
<path d="M592 1018 c-97 -101 -270 -278 -385 -394 -195 -198 -208 -213 -205
-244 3 -32 9 -26 303 275 447 460 461 473 501 481 19 3 34 9 34 13 -1 15 -17
30 -44 40 -27 11 -32 7 -204 -171z"/>
<path d="M4954 843 c-157 -165 -736 -792 -763 -826 -13 -16 -8 -17 63 -17 76
0 76 0 122 43 25 23 53 51 62 61 10 11 69 74 133 140 143 148 154 160 254 272
44 49 128 138 188 198 l107 109 0 94 c0 51 -1 93 -3 93 -2 0 -75 -75 -163
-167z"/>
<path d="M5015 100 l-100 -100 35 0 c30 0 45 10 98 62 61 60 77 89 70 123 -2
11 -34 -15 -103 -85z"/>
</g>
</svg>